<svg xmlns="http://www.w3.org/2000/svg" width="900" height="470" viewBox="0 0 900 470" role="img" aria-label="market chart">
  <defs>
    <linearGradient id="bg" x1="0" y1="0" x2="1" y2="1">
      <stop offset="0" stop-color="#0b0b12"/><stop offset="1" stop-color="#07070c"/>
    </linearGradient>
    <radialGradient id="glow" cx="0.85" cy="0.02" r="0.9">
      <stop offset="0" stop-color="#8b5cf6" stop-opacity="0.22"/><stop offset="1" stop-color="#8b5cf6" stop-opacity="0"/>
    </radialGradient>
    <linearGradient id="ma" x1="0" y1="0" x2="1" y2="0">
      <stop offset="0" stop-color="#a78bfa"/><stop offset="0.5" stop-color="#7dd3fc"/><stop offset="1" stop-color="#34d399"/>
    </linearGradient>
    <linearGradient id="area" x1="0" y1="0" x2="0" y2="1">
      <stop offset="0" stop-color="#34d399" stop-opacity="0.28"/><stop offset="1" stop-color="#34d399" stop-opacity="0"/>
    </linearGradient>
  </defs>
  <rect x="0.75" y="0.75" width="898.5" height="468.5" rx="18" fill="url(#bg)" stroke="#24243a" stroke-width="1.5"/>
  <rect x="0.75" y="0.75" width="898.5" height="468.5" rx="18" fill="url(#glow)"/>  <text x="52" y="62" font-family="-apple-system,'Segoe UI',Arial,sans-serif" font-size="30" font-weight="800" letter-spacing="1" fill="#f3f3f8">VNSH</text>
  <text x="156" y="62" font-family="-apple-system,'Segoe UI',Arial,sans-serif" font-size="26" font-weight="600" fill="#e8e8ee">$162.91</text>
  <g transform="translate(288,42)">
    <rect x="0" y="0" width="104" height="26" rx="13" fill="#12351f" stroke="#2fb872" stroke-opacity="0.4"/>
    <text x="52" y="18" text-anchor="middle" font-family="-apple-system,'Segoe UI',Arial,sans-serif" font-size="14" font-weight="700" fill="#43d585">&#9650; +62.9%</text>
  </g>
  <g font-family="ui-monospace,Consolas,monospace" font-size="12" fill="#5a5a70">
    <text x="700" y="46">1D</text><text x="736" y="46">1W</text><text x="772" y="46">1M</text>
    <rect x="800" y="34" width="30" height="18" rx="5" fill="#1c1630" stroke="#8b5cf6" stroke-opacity="0.5"/>
    <text x="815" y="46" text-anchor="middle" fill="#c4b5fd">1Y</text>
  </g>
  <g transform="translate(700,64)">
    <circle cx="6" cy="6" r="4" fill="#43d585"><animate attributeName="opacity" values="1;0.25;1" dur="1.6s" repeatCount="indefinite"/></circle>
    <text x="18" y="10" font-family="ui-monospace,Consolas,monospace" font-size="11" letter-spacing="2" fill="#5a5a70">LIVE</text>
  </g>
  <g stroke="#ffffff" stroke-opacity="0.05" stroke-width="1">
    <line x1="52" y1="408" x2="846" y2="408"/>
    <line x1="52" y1="338.5" x2="846" y2="338.5"/>
    <line x1="52" y1="269" x2="846" y2="269"/>
    <line x1="52" y1="199.5" x2="846" y2="199.5"/>
    <line x1="52" y1="130" x2="846" y2="130"/>
  </g>
  <g font-family="ui-monospace,Consolas,monospace" font-size="10" fill="#4a4a5e">
    <text x="854" y="411">99.4</text>
    <text x="854" y="341.5">115.7</text>
    <text x="854" y="272">132</text>
    <text x="854" y="202.5">148.3</text>
    <text x="854" y="133">164.6</text>
  </g>
  <g>
    <g opacity="0"><animate attributeName="opacity" from="0" to="1" dur="0.32s" begin="0.3s" fill="freeze"/><line x1="60.27" y1="391.82" x2="60.27" y2="408" stroke="#2fb872" stroke-width="1.4"/><rect x="55.77" y="393.96" width="9" height="11.59" rx="1.5" fill="#2fb872"/></g>
    <g opacity="0"><animate attributeName="opacity" from="0" to="1" dur="0.32s" begin="0.32s" fill="freeze"/><line x1="76.81" y1="380.25" x2="76.81" y2="397.94" stroke="#2fb872" stroke-width="1.4"/><rect x="72.31" y="381.09" width="9" height="12.87" rx="1.5" fill="#2fb872"/></g>
    <g opacity="0"><animate attributeName="opacity" from="0" to="1" dur="0.32s" begin="0.34s" fill="freeze"/><line x1="93.35" y1="360.98" x2="93.35" y2="385.55" stroke="#2fb872" stroke-width="1.4"/><rect x="88.85" y="364.39" width="9" height="16.7" rx="1.5" fill="#2fb872"/></g>
    <g opacity="0"><animate attributeName="opacity" from="0" to="1" dur="0.32s" begin="0.36s" fill="freeze"/><line x1="109.9" y1="360.29" x2="109.9" y2="366.26" stroke="#2fb872" stroke-width="1.4"/><rect x="105.4" y="361.23" width="9" height="3.16" rx="1.5" fill="#2fb872"/></g>
    <g opacity="0"><animate attributeName="opacity" from="0" to="1" dur="0.32s" begin="0.38s" fill="freeze"/><line x1="126.44" y1="344.51" x2="126.44" y2="365.17" stroke="#2fb872" stroke-width="1.4"/><rect x="121.94" y="349.23" width="9" height="12" rx="1.5" fill="#2fb872"/></g>
    <g opacity="0"><animate attributeName="opacity" from="0" to="1" dur="0.32s" begin="0.4s" fill="freeze"/><line x1="142.98" y1="339.21" x2="142.98" y2="350.51" stroke="#2fb872" stroke-width="1.4"/><rect x="138.48" y="344.38" width="9" height="4.85" rx="1.5" fill="#2fb872"/></g>
    <g opacity="0"><animate attributeName="opacity" from="0" to="1" dur="0.32s" begin="0.42s" fill="freeze"/><line x1="159.52" y1="341.33" x2="159.52" y2="347.11" stroke="#ef4767" stroke-width="1.4"/><rect x="155.02" y="344.38" width="9" height="2.09" rx="1.5" fill="#ef4767"/></g>
    <g opacity="0"><animate attributeName="opacity" from="0" to="1" dur="0.32s" begin="0.44s" fill="freeze"/><line x1="176.06" y1="324.54" x2="176.06" y2="349.01" stroke="#2fb872" stroke-width="1.4"/><rect x="171.56" y="329.3" width="9" height="17.17" rx="1.5" fill="#2fb872"/></g>
    <g opacity="0"><animate attributeName="opacity" from="0" to="1" dur="0.32s" begin="0.46s" fill="freeze"/><line x1="192.6" y1="322.77" x2="192.6" y2="332.46" stroke="#2fb872" stroke-width="1.4"/><rect x="188.1" y="328.21" width="9" height="1.5" rx="1.5" fill="#2fb872"/></g>
    <g opacity="0"><animate attributeName="opacity" from="0" to="1" dur="0.32s" begin="0.48s" fill="freeze"/><line x1="209.15" y1="318.39" x2="209.15" y2="330.82" stroke="#2fb872" stroke-width="1.4"/><rect x="204.65" y="323.01" width="9" height="5.21" rx="1.5" fill="#2fb872"/></g>
    <g opacity="0"><animate attributeName="opacity" from="0" to="1" dur="0.32s" begin="0.5s" fill="freeze"/><line x1="225.69" y1="316.54" x2="225.69" y2="328.58" stroke="#2fb872" stroke-width="1.4"/><rect x="221.19" y="318.66" width="9" height="4.35" rx="1.5" fill="#2fb872"/></g>
    <g opacity="0"><animate attributeName="opacity" from="0" to="1" dur="0.32s" begin="0.52s" fill="freeze"/><line x1="242.23" y1="298.15" x2="242.23" y2="320.67" stroke="#2fb872" stroke-width="1.4"/><rect x="237.73" y="300.27" width="9" height="18.39" rx="1.5" fill="#2fb872"/></g>
    <g opacity="0"><animate attributeName="opacity" from="0" to="1" dur="0.32s" begin="0.54s" fill="freeze"/><line x1="258.77" y1="284.96" x2="258.77" y2="300.3" stroke="#2fb872" stroke-width="1.4"/><rect x="254.27" y="289.95" width="9" height="10.32" rx="1.5" fill="#2fb872"/></g>
    <g opacity="0"><animate attributeName="opacity" from="0" to="1" dur="0.32s" begin="0.56s" fill="freeze"/><line x1="275.31" y1="287.47" x2="275.31" y2="294.79" stroke="#2fb872" stroke-width="1.4"/><rect x="270.81" y="288.51" width="9" height="1.5" rx="1.5" fill="#2fb872"/></g>
    <g opacity="0"><animate attributeName="opacity" from="0" to="1" dur="0.32s" begin="0.58s" fill="freeze"/><line x1="291.85" y1="280.33" x2="291.85" y2="291.7" stroke="#2fb872" stroke-width="1.4"/><rect x="287.35" y="285.5" width="9" height="3.02" rx="1.5" fill="#2fb872"/></g>
    <g opacity="0"><animate attributeName="opacity" from="0" to="1" dur="0.32s" begin="0.6s" fill="freeze"/><line x1="308.4" y1="276.44" x2="308.4" y2="290.48" stroke="#2fb872" stroke-width="1.4"/><rect x="303.9" y="281.84" width="9" height="3.66" rx="1.5" fill="#2fb872"/></g>
    <g opacity="0"><animate attributeName="opacity" from="0" to="1" dur="0.32s" begin="0.62s" fill="freeze"/><line x1="324.94" y1="277.9" x2="324.94" y2="284.82" stroke="#2fb872" stroke-width="1.4"/><rect x="320.44" y="280.15" width="9" height="1.69" rx="1.5" fill="#2fb872"/></g>
    <g opacity="0"><animate attributeName="opacity" from="0" to="1" dur="0.32s" begin="0.64s" fill="freeze"/><line x1="341.48" y1="278.19" x2="341.48" y2="286.39" stroke="#ef4767" stroke-width="1.4"/><rect x="336.98" y="280.15" width="9" height="4.9" rx="1.5" fill="#ef4767"/></g>
    <g opacity="0"><animate attributeName="opacity" from="0" to="1" dur="0.32s" begin="0.66s" fill="freeze"/><line x1="358.02" y1="279.85" x2="358.02" y2="296.41" stroke="#ef4767" stroke-width="1.4"/><rect x="353.52" y="285.05" width="9" height="7.91" rx="1.5" fill="#ef4767"/></g>
    <g opacity="0"><animate attributeName="opacity" from="0" to="1" dur="0.32s" begin="0.68s" fill="freeze"/><line x1="374.56" y1="290.26" x2="374.56" y2="304.61" stroke="#ef4767" stroke-width="1.4"/><rect x="370.06" y="292.95" width="9" height="10.57" rx="1.5" fill="#ef4767"/></g>
    <g opacity="0"><animate attributeName="opacity" from="0" to="1" dur="0.32s" begin="0.7s" fill="freeze"/><line x1="391.1" y1="300.94" x2="391.1" y2="312.2" stroke="#ef4767" stroke-width="1.4"/><rect x="386.6" y="303.52" width="9" height="3.84" rx="1.5" fill="#ef4767"/></g>
    <g opacity="0"><animate attributeName="opacity" from="0" to="1" dur="0.32s" begin="0.72s" fill="freeze"/><line x1="407.65" y1="300.02" x2="407.65" y2="312.01" stroke="#2fb872" stroke-width="1.4"/><rect x="403.15" y="305.64" width="9" height="1.72" rx="1.5" fill="#2fb872"/></g>
    <g opacity="0"><animate attributeName="opacity" from="0" to="1" dur="0.32s" begin="0.74s" fill="freeze"/><line x1="424.19" y1="300.85" x2="424.19" y2="308.89" stroke="#ef4767" stroke-width="1.4"/><rect x="419.69" y="305.64" width="9" height="1.5" rx="1.5" fill="#ef4767"/></g>
    <g opacity="0"><animate attributeName="opacity" from="0" to="1" dur="0.32s" begin="0.76s" fill="freeze"/><line x1="440.73" y1="300" x2="440.73" y2="306.56" stroke="#2fb872" stroke-width="1.4"/><rect x="436.23" y="304.89" width="9" height="1.5" rx="1.5" fill="#2fb872"/></g>
    <g opacity="0"><animate attributeName="opacity" from="0" to="1" dur="0.32s" begin="0.78s" fill="freeze"/><line x1="457.27" y1="299.76" x2="457.27" y2="311.55" stroke="#ef4767" stroke-width="1.4"/><rect x="452.77" y="304.89" width="9" height="4.4" rx="1.5" fill="#ef4767"/></g>
    <g opacity="0"><animate attributeName="opacity" from="0" to="1" dur="0.32s" begin="0.8s" fill="freeze"/><line x1="473.81" y1="306.43" x2="473.81" y2="311.36" stroke="#ef4767" stroke-width="1.4"/><rect x="469.31" y="309.29" width="9" height="2.06" rx="1.5" fill="#ef4767"/></g>
    <g opacity="0"><animate attributeName="opacity" from="0" to="1" dur="0.32s" begin="0.82s" fill="freeze"/><line x1="490.35" y1="288.15" x2="490.35" y2="311.87" stroke="#2fb872" stroke-width="1.4"/><rect x="485.85" y="293.63" width="9" height="17.72" rx="1.5" fill="#2fb872"/></g>
    <g opacity="0"><animate attributeName="opacity" from="0" to="1" dur="0.32s" begin="0.84s" fill="freeze"/><line x1="506.9" y1="281.06" x2="506.9" y2="296.32" stroke="#2fb872" stroke-width="1.4"/><rect x="502.4" y="281.79" width="9" height="11.83" rx="1.5" fill="#2fb872"/></g>
    <g opacity="0"><animate attributeName="opacity" from="0" to="1" dur="0.32s" begin="0.86s" fill="freeze"/><line x1="523.44" y1="260.1" x2="523.44" y2="282.12" stroke="#2fb872" stroke-width="1.4"/><rect x="518.94" y="261.92" width="9" height="19.88" rx="1.5" fill="#2fb872"/></g>
    <g opacity="0"><animate attributeName="opacity" from="0" to="1" dur="0.32s" begin="0.88s" fill="freeze"/><line x1="539.98" y1="242.98" x2="539.98" y2="265.04" stroke="#2fb872" stroke-width="1.4"/><rect x="535.48" y="248.36" width="9" height="13.56" rx="1.5" fill="#2fb872"/></g>
    <g opacity="0"><animate attributeName="opacity" from="0" to="1" dur="0.32s" begin="0.9s" fill="freeze"/><line x1="556.52" y1="230.14" x2="556.52" y2="250.82" stroke="#2fb872" stroke-width="1.4"/><rect x="552.02" y="234.41" width="9" height="13.94" rx="1.5" fill="#2fb872"/></g>
    <g opacity="0"><animate attributeName="opacity" from="0" to="1" dur="0.32s" begin="0.92s" fill="freeze"/><line x1="573.06" y1="217.4" x2="573.06" y2="239.21" stroke="#2fb872" stroke-width="1.4"/><rect x="568.56" y="218.51" width="9" height="15.9" rx="1.5" fill="#2fb872"/></g>
    <g opacity="0"><animate attributeName="opacity" from="0" to="1" dur="0.32s" begin="0.94s" fill="freeze"/><line x1="589.6" y1="196.28" x2="589.6" y2="224.51" stroke="#2fb872" stroke-width="1.4"/><rect x="585.1" y="196.55" width="9" height="21.96" rx="1.5" fill="#2fb872"/></g>
    <g opacity="0"><animate attributeName="opacity" from="0" to="1" dur="0.32s" begin="0.96s" fill="freeze"/><line x1="606.15" y1="182.28" x2="606.15" y2="197" stroke="#2fb872" stroke-width="1.4"/><rect x="601.65" y="183.12" width="9" height="13.43" rx="1.5" fill="#2fb872"/></g>
    <g opacity="0"><animate attributeName="opacity" from="0" to="1" dur="0.32s" begin="0.98s" fill="freeze"/><line x1="622.69" y1="182.97" x2="622.69" y2="189.74" stroke="#ef4767" stroke-width="1.4"/><rect x="618.19" y="183.12" width="9" height="2.88" rx="1.5" fill="#ef4767"/></g>
    <g opacity="0"><animate attributeName="opacity" from="0" to="1" dur="0.32s" begin="1s" fill="freeze"/><line x1="639.23" y1="178.96" x2="639.23" y2="189.43" stroke="#ef4767" stroke-width="1.4"/><rect x="634.73" y="186" width="9" height="1.5" rx="1.5" fill="#ef4767"/></g>
    <g opacity="0"><animate attributeName="opacity" from="0" to="1" dur="0.32s" begin="1.02s" fill="freeze"/><line x1="655.77" y1="162.69" x2="655.77" y2="188.93" stroke="#2fb872" stroke-width="1.4"/><rect x="651.27" y="168.71" width="9" height="17.62" rx="1.5" fill="#2fb872"/></g>
    <g opacity="0"><animate attributeName="opacity" from="0" to="1" dur="0.32s" begin="1.04s" fill="freeze"/><line x1="672.31" y1="159.72" x2="672.31" y2="172.57" stroke="#2fb872" stroke-width="1.4"/><rect x="667.81" y="160.51" width="9" height="8.2" rx="1.5" fill="#2fb872"/></g>
    <g opacity="0"><animate attributeName="opacity" from="0" to="1" dur="0.32s" begin="1.06s" fill="freeze"/><line x1="688.85" y1="156.72" x2="688.85" y2="174.09" stroke="#ef4767" stroke-width="1.4"/><rect x="684.35" y="160.51" width="9" height="11.23" rx="1.5" fill="#ef4767"/></g>
    <g opacity="0"><animate attributeName="opacity" from="0" to="1" dur="0.32s" begin="1.08s" fill="freeze"/><line x1="705.4" y1="168.07" x2="705.4" y2="176.68" stroke="#2fb872" stroke-width="1.4"/><rect x="700.9" y="171.36" width="9" height="1.5" rx="1.5" fill="#2fb872"/></g>
    <g opacity="0"><animate attributeName="opacity" from="0" to="1" dur="0.32s" begin="1.1s" fill="freeze"/><line x1="721.94" y1="152.02" x2="721.94" y2="178.56" stroke="#2fb872" stroke-width="1.4"/><rect x="717.44" y="156.47" width="9" height="14.9" rx="1.5" fill="#2fb872"/></g>
    <g opacity="0"><animate attributeName="opacity" from="0" to="1" dur="0.32s" begin="1.12s" fill="freeze"/><line x1="738.48" y1="151.77" x2="738.48" y2="171.87" stroke="#ef4767" stroke-width="1.4"/><rect x="733.98" y="156.47" width="9" height="13.99" rx="1.5" fill="#ef4767"/></g>
    <g opacity="0"><animate attributeName="opacity" from="0" to="1" dur="0.32s" begin="1.14s" fill="freeze"/><line x1="755.02" y1="152.81" x2="755.02" y2="175.69" stroke="#2fb872" stroke-width="1.4"/><rect x="750.52" y="155.92" width="9" height="14.54" rx="1.5" fill="#2fb872"/></g>
    <g opacity="0"><animate attributeName="opacity" from="0" to="1" dur="0.32s" begin="1.16s" fill="freeze"/><line x1="771.56" y1="141.62" x2="771.56" y2="159.33" stroke="#2fb872" stroke-width="1.4"/><rect x="767.06" y="144.17" width="9" height="11.75" rx="1.5" fill="#2fb872"/></g>
    <g opacity="0"><animate attributeName="opacity" from="0" to="1" dur="0.32s" begin="1.18s" fill="freeze"/><line x1="788.1" y1="142.55" x2="788.1" y2="160.97" stroke="#ef4767" stroke-width="1.4"/><rect x="783.6" y="144.17" width="9" height="10.79" rx="1.5" fill="#ef4767"/></g>
    <g opacity="0"><animate attributeName="opacity" from="0" to="1" dur="0.32s" begin="1.2s" fill="freeze"/><line x1="804.65" y1="151.68" x2="804.65" y2="169.89" stroke="#ef4767" stroke-width="1.4"/><rect x="800.15" y="154.96" width="9" height="14.2" rx="1.5" fill="#ef4767"/></g>
    <g opacity="0"><animate attributeName="opacity" from="0" to="1" dur="0.32s" begin="1.22s" fill="freeze"/><line x1="821.19" y1="142.54" x2="821.19" y2="171.34" stroke="#2fb872" stroke-width="1.4"/><rect x="816.69" y="147.14" width="9" height="22.02" rx="1.5" fill="#2fb872"/></g>
    <g opacity="0"><animate attributeName="opacity" from="0" to="1" dur="0.32s" begin="1.24s" fill="freeze"/><line x1="837.73" y1="130" x2="837.73" y2="147.24" stroke="#2fb872" stroke-width="1.4"/><rect x="833.23" y="137.2" width="9" height="9.94" rx="1.5" fill="#2fb872"/></g>
  </g>
  <polygon points="142.98,418 142.98,365.72 159.52,357.8 176.06,349.17 192.6,343.14 209.15,336.77 225.69,331.67 242.23,324.32 258.77,314.9 275.31,308.1 291.85,300.98 308.4,294.12 324.94,287.7 341.48,285.17 358.02,285.67 374.56,288.17 391.1,291.81 407.65,295.78 424.19,300.06 440.73,303.37 457.27,306.09 473.81,307.39 490.35,305.1 506.9,301.13 523.44,293.81 539.98,284.39 556.52,271.91 573.06,256.44 589.6,240.26 606.15,223.81 622.69,211.16 639.23,200.82 655.77,189.87 672.31,180.2 688.85,176.07 705.4,174.11 721.94,169.19 738.48,166.54 755.02,164.41 771.56,161.69 788.1,158.89 804.65,158.52 821.19,156.97 837.73,151.43 837.73,418" fill="url(#area)" opacity="0">
    <animate attributeName="opacity" from="0" to="1" dur="0.9s" begin="1.5s" fill="freeze"/>
  </polygon>
  <polyline points="142.98,365.72 159.52,357.8 176.06,349.17 192.6,343.14 209.15,336.77 225.69,331.67 242.23,324.32 258.77,314.9 275.31,308.1 291.85,300.98 308.4,294.12 324.94,287.7 341.48,285.17 358.02,285.67 374.56,288.17 391.1,291.81 407.65,295.78 424.19,300.06 440.73,303.37 457.27,306.09 473.81,307.39 490.35,305.1 506.9,301.13 523.44,293.81 539.98,284.39 556.52,271.91 573.06,256.44 589.6,240.26 606.15,223.81 622.69,211.16 639.23,200.82 655.77,189.87 672.31,180.2 688.85,176.07 705.4,174.11 721.94,169.19 738.48,166.54 755.02,164.41 771.56,161.69 788.1,158.89 804.65,158.52 821.19,156.97 837.73,151.43" fill="none" stroke="url(#ma)" stroke-width="6" stroke-opacity="0.25" stroke-linecap="round" stroke-linejoin="round"
    stroke-dasharray="760.14" stroke-dashoffset="760.14">
    <animate attributeName="stroke-dashoffset" from="760.14" to="0" dur="1.7s" begin="1.4s" fill="freeze"/>
  </polyline>
  <polyline points="142.98,365.72 159.52,357.8 176.06,349.17 192.6,343.14 209.15,336.77 225.69,331.67 242.23,324.32 258.77,314.9 275.31,308.1 291.85,300.98 308.4,294.12 324.94,287.7 341.48,285.17 358.02,285.67 374.56,288.17 391.1,291.81 407.65,295.78 424.19,300.06 440.73,303.37 457.27,306.09 473.81,307.39 490.35,305.1 506.9,301.13 523.44,293.81 539.98,284.39 556.52,271.91 573.06,256.44 589.6,240.26 606.15,223.81 622.69,211.16 639.23,200.82 655.77,189.87 672.31,180.2 688.85,176.07 705.4,174.11 721.94,169.19 738.48,166.54 755.02,164.41 771.56,161.69 788.1,158.89 804.65,158.52 821.19,156.97 837.73,151.43" fill="none" stroke="url(#ma)" stroke-width="2.2" stroke-linecap="round" stroke-linejoin="round"
    stroke-dasharray="760.14" stroke-dashoffset="760.14">
    <animate attributeName="stroke-dashoffset" from="760.14" to="0" dur="1.7s" begin="1.4s" fill="freeze"/>
  </polyline>
  <g opacity="0"><animate attributeName="opacity" from="0" to="1" dur="0.3s" begin="3.0s" fill="freeze"/>
    <circle cx="837.73" cy="151.43" r="4" fill="#34d399"/>
    <circle cx="837.73" cy="151.43" r="4" fill="none" stroke="#34d399">
      <animate attributeName="r" values="4;13" dur="1.8s" begin="3.0s" repeatCount="indefinite"/>
      <animate attributeName="stroke-opacity" values="0.6;0" dur="1.8s" begin="3.0s" repeatCount="indefinite"/>
    </circle>
  </g>
</svg>